<?xml version="1.0" encoding="UTF-8" standalone="yes"?><svg width="2695" height="2695" xml:space="preserve" version="1.2" baseProfile="tiny-ps" xmlns="http://www.w3.org/2000/svg"> <title>Kim Do Hoon</title> <defs/> <g transform="translate(-925)"> <path fill="#2948FF" d="M927 0h2692v2692H927z"/> <g> <g> <g> <g> <g> <g fill="#FFF"> <path d="M2492.34 2017.82c-162.529 0-294.749-132.106-294.749-294.484h150.837c0 79.284 64.558 143.787 143.912 143.787 79.359 0 143.922-64.503 143.922-143.787 0-79.285-64.563-143.783-143.922-143.783v-150.697c162.534 0 294.758 132.102 294.758 294.48 0 162.378-132.224 294.484-294.758 294.484"/> <path d="M2375.9 1617.69h-661.452V936.034h587.848v150.696h-437.011v380.263H2375.9z"/> <path d="M2579.42 1085.92h-150.837V823.694h-715.58V672.997h866.417zM2834.456 1350.3H1981.8v-150.7h852.655z"/> </g> </g> </g> </g> </g> </g> </g></svg>